<svg xmlns="http://www.w3.org/2000/svg" width="521.025" height="341.537" viewBox="0 0 521.025 341.537"><g id="FAQ_header" transform="translate(8397.791 4008.992)"><g id="Group_3407" data-name="Group 3407" transform="translate(-7931.519 -3997.269)"><g id="Group_3406" data-name="Group 3406"><path id="Path_3560" data-name="Path 3560" d="M-7793.631-3967.342l24.344-26.46-17.312,23.972Z" transform="translate(7793.631 3993.802)" fill="#e5e8ec"></path><path id="Path_3561" data-name="Path 3561" d="M-7779.626-3965.07l12.419-28.732-17.312,23.972Z" transform="translate(7791.552 3993.802)" fill="#cdd5d7"></path><path id="Path_3562" data-name="Path 3562" d="M-7793.544-3962.383l12.04-9.456-4.821,6.689Z" transform="translate(7793.612 3988.79)" fill="#e67a61"></path><path id="Path_3563" data-name="Path 3563" d="M-7793.631-3962.232l11.85-9.178-4.817,6.69Z" transform="translate(7793.631 3988.692)" fill="#ff9e11"></path><path id="Path_3564" data-name="Path 3564" d="M-7779.626-3960.058l2.846-7.074-2.664-4.707-5.075,7.021Z" transform="translate(7791.552 3988.79)" fill="#ffab01"></path><path id="Path_3565" data-name="Path 3565" d="M-7778.18-3965.07l12.419-28.732-11.864,22.86Z" transform="translate(7790.105 3993.802)" fill="#b7bec0"></path><path id="Path_3566" data-name="Path 3566" d="M-7764.688-3968.454l-.909-25.348-11.864,22.86Z" transform="translate(7789.941 3993.802)" fill="#e5e8ec"></path><path id="Path_3567" data-name="Path 3567" d="M-7764.658-3963.333l-9.861-8.032-2.81,5.323Z" transform="translate(7789.911 3988.682)" fill="#e67a61"></path><path id="Path_3568" data-name="Path 3568" d="M-7764.688-3963.268l-9.963-7.811-2.81,5.323Z" transform="translate(7789.941 3988.616)" fill="#ff9e11"></path></g></g><path id="Path_3569" data-name="Path 3569" d="M-8324.688-3805.686c-41.364-7.854-35.661-59.634-1.133-104.436,26.019-33.758,110.385-90.583,162.357-67.346,22.826,10.207,63.377,57.754,54.52,79.332-10.188,24.814-36.922,21.78-28.721,2.565,9.945-23.3,103.591-107.459,154.347-97.6,72.112,14.012,14.575,80.445.5,88.768-22.678,13.411-25.345-10.394,30.6-15.561,13.462-1.245,30.295-9.968,39.124-37.058" transform="translate(-10.054 -3.429)" fill="none" stroke="#3bb6d5" stroke-miterlimit="10" stroke-width="1.245" stroke-dasharray="6.374"></path><path id="Path_3570" data-name="Path 3570" d="M-8155.25-3669.055c-75.187-2.321-140.862-9.845-183.873-17.976-43.379-8.27-64.062-17.143-57.462-25.323,6.621-8.259,38.8-14.928,81.815-21,43.293-5.941,97.43-11.292,154.959-13.738,112.132-5.483,216.551,7.833,241.359,34.547C-7893.428-3685.977-8001.631-3663.523-8155.25-3669.055Z" transform="translate(0 -59.495)" fill="#edf6f8"></path><g id="Group_3408" data-name="Group 3408" transform="translate(-8354.77 -3964.217)"><path id="Path_3571" data-name="Path 3571" d="M-8240.252-3900.849v35.832h-56.6v19.952h40.719v34h-40.719v54.358h-45.2v-144.142Z" transform="translate(8342.047 3939.536)" fill="#005579"></path><path id="Path_3572" data-name="Path 3572" d="M-8140.816-3743.27h-48.048l-7.125,21.784h-47.437l52.729-144.141h52.12l52.525,144.141h-47.639Zm-10.995-34-13.03-40.107-13.029,40.107Z" transform="translate(8319.539 3931.497)" fill="#005579"></path><path id="Path_3573" data-name="Path 3573" d="M-7968.91-3780.979l-13.844-22.8a63.773,63.773,0,0,1-10.791.814,74.83,74.83,0,0,1-37.358-9.567A71.577,71.577,0,0,1-8057.879-3839q-9.977-16.9-9.976-38.07t9.976-38.072a70.854,70.854,0,0,1,26.976-26.365,75.488,75.488,0,0,1,37.358-9.466,74.942,74.942,0,0,1,37.258,9.466,70.369,70.369,0,0,1,26.771,26.365q9.873,16.9,9.874,38.072a75.083,75.083,0,0,1-6.719,31.861,72.123,72.123,0,0,1-18.526,24.736l29.317,39.5Zm-45.6-72.783q7.329,8.655,20.97,8.652,13.437,0,20.766-8.652t7.33-23.311q0-14.859-7.33-23.515t-20.766-8.652q-13.642,0-20.97,8.652t-7.329,23.515Q-8021.844-3862.415-8014.515-3853.762Z" transform="translate(8279.468 3950.976)" fill="#005579"></path></g><g id="Group_3415" data-name="Group 3415" transform="translate(-8388.047 -4000.359)"><g id="Group_3413" data-name="Group 3413" transform="translate(0)"><path id="Path_3574" data-name="Path 3574" d="M-8306.666-3962.689a9.1,9.1,0,0,0,12.139,3.993,8.89,8.89,0,0,0,4.3-11.9,9.1,9.1,0,0,0-12.14-3.994A8.892,8.892,0,0,0-8306.666-3962.689Z" transform="translate(8367.451 3992.721)" fill="#282723"></path><path id="Path_3575" data-name="Path 3575" d="M-8312.682-3949.069a11.486,11.486,0,0,0,15.324,5.04,11.225,11.225,0,0,0,5.427-15.032,11.486,11.486,0,0,0-15.327-5.041A11.226,11.226,0,0,0-8312.682-3949.069Z" transform="translate(8368.879 3990.383)" fill="#282723"></path><g id="Group_3411" data-name="Group 3411" transform="translate(36.233 25.351)"><g id="Group_3410" data-name="Group 3410" transform="translate(0 25.772)"><g id="Group_3409" data-name="Group 3409" transform="translate(0 1.789)"><path id="Path_3576" data-name="Path 3576" d="M-8307.331-3928.6s.334,1.478-6.881,3.291-18.266,2.7-18.266,2.7l16.254-5.712S-8309.9-3930.209-8307.331-3928.6Z" transform="translate(8336.907 3929.247)" fill="#e2c59c"></path><path id="Path_3577" data-name="Path 3577" d="M-8327.975-3922.023c-3.4.965-4.377,3.064-5.574,3.968a24.9,24.9,0,0,0-2.316,2.071c.339-1.652,1.426-2,1.843-2.625s.34-.347-.9-.094c-.7.146-1.566,1.688-2.247,2.6a2.851,2.851,0,0,1-1.049.97,15.54,15.54,0,0,1,1.371-2.759,18,18,0,0,1,2.757-3.293,14.209,14.209,0,0,1,4.584-1.459C-8327.605-3922.919-8325.522-3922.719-8327.975-3922.023Z" transform="translate(8338.217 3927.767)" fill="#e2c59c"></path><path id="Path_3578" data-name="Path 3578" d="M-8333.776-3920.7a19.28,19.28,0,0,0-2.775,1.863c-.249.327-1.18,2.086-1.18,2.086a3.523,3.523,0,0,0,1.341-1.115A30.7,30.7,0,0,1-8333.776-3920.7Z" transform="translate(8338.106 3927.297)" fill="#e2c59c"></path></g><path id="Path_3579" data-name="Path 3579" d="M-8307.277-3931.3s6.7-1.473,7.383,2.511c.388,2.266-.9,3.458-2.93,3.868-3.781.766-8.128,1.433-8.128,1.433l-3.629-5.461Z" transform="translate(8332.822 3931.565)" fill="#daedef"></path></g><path id="Path_3580" data-name="Path 3580" d="M-8305.641-3942.21l1.867-18.11s-.133-4.736,1.6-4.637c2.488.138,2.966,4.229,3.185,5.7a48.012,48.012,0,0,1,1.028,11.7c-.031,4.645.3,9.891.007,13.024-.2,2.161-2.331-.239-4.55-.442C-8306.646-3935.364-8305.641-3942.21-8305.641-3942.21Z" transform="translate(8330.807 3964.958)" fill="#c6e3e5"></path></g><path id="Path_3581" data-name="Path 3581" d="M-8363.313-3870.324l-6.12,13.118-8.49.184-4.29-.859,9.233-2.168,4.943-12.177Z" transform="translate(8384.491 3969.145)" fill="#e9d6b8"></path><path id="Path_3582" data-name="Path 3582" d="M-8371.046-3851.164l-1.127-.262-.629-1.356-6.849.3-5.515-1.013a.987.987,0,0,1,.369-.549c.974-.519,5.257-.77,5.257-.77s-.449,1.174.036,1.421,5.771-.076,7.041-.25c2.183-.308,3.311-.848,3.213-.563C-8369.39-3853.789-8371.046-3851.164-8371.046-3851.164Z" transform="translate(8385.165 3965.171)" fill="#161711"></path><path id="Path_3583" data-name="Path 3583" d="M-8325.957-3907.919l-20.012-.529-14.912,32.249-6.175-2.41,14.546-38.8s1.154-2.456,7.2-2.456c5.882,0,29.626-.639,32.325.1C-8306.589-3918.006-8327.055-3913.278-8325.957-3907.919Z" transform="translate(8381.032 3980.076)" fill="#ff9e11"></path><path id="Path_3584" data-name="Path 3584" d="M-8295.618-3977.574a9.1,9.1,0,0,0,12.139,4,8.892,8.892,0,0,0,4.3-11.907,9.1,9.1,0,0,0-12.139-3.994A8.891,8.891,0,0,0-8295.618-3977.574Z" transform="translate(8364.931 3996.118)" fill="#282723"></path><path id="Path_3585" data-name="Path 3585" d="M-8308.412-3982.1a6.918,6.918,0,0,0,9.193,3.133l.115-3.646a6.755,6.755,0,0,0,3.165-9.08l-1.128-2.288a6.912,6.912,0,0,0-9.191-3.133l-1.545.741a6.759,6.759,0,0,0-3.168,9.085Z" transform="translate(8368.39 3997.806)" fill="#282723"></path><path id="Path_3586" data-name="Path 3586" d="M-8310.138-3990.631a13.109,13.109,0,0,0,1,1.647c2.557,3.621,6.438,5.436,9.252,4.532a20.8,20.8,0,0,0,3.209,4.312,10.533,10.533,0,0,0,3.894,2.058c1.8,2.524.78,9.788-5.646,10.535-3.861.448-3.069-3.573-1.722-6.081.632-1.178,1.238-2.531,1.1-3.2-.486-2.314-1.344-2.629-2.719-3.419a5.684,5.684,0,0,0-4.445.047.792.792,0,0,1-.632.025,4.756,4.756,0,0,1-.825-1.18l-2.48-5.035A4.747,4.747,0,0,1-8310.138-3990.631Z" transform="translate(8368.158 3996.169)" fill="#e9d6b8"></path><path id="Path_3587" data-name="Path 3587" d="M-8287.229-3924.22s-2.935.6-3.749.9c-1.088.4-4.275-.106-4.275-.106s-.406-15.536-1.176-20.958-2.191-6.9-2.182-8.591a18.643,18.643,0,0,1,.728-5.445c.485-2.1-.933-4.9-.452-4.367.776.865,3.684,2.2,6.4-.765C-8291.473-3964.064-8287.229-3924.22-8287.229-3924.22Z" transform="translate(8365.411 3989.99)" fill="#005579"></path><path id="Path_3588" data-name="Path 3588" d="M-8298.486-3970.72s-3.992,3.971-3.832,5.277-.244,6.791.671,12.63,1.653,7.287,1.8,11.548-.848,5.213-.486,10.448c.285,4.1.935,7.715.935,7.715a3.485,3.485,0,0,0,3.306-1c1.422-1.524.907-15.777.385-19.286s-2.61-12.713-2.486-15.158.926-8.282,1.364-9.05C-8295.734-3969.514-8298.171-3970.52-8298.486-3970.72Z" transform="translate(8366.258 3991.624)" fill="#daedef"></path><path id="Path_3589" data-name="Path 3589" d="M-8297.733-3971.2a2.1,2.1,0,0,0,.492.529,9.03,9.03,0,0,1,1.173,1.051s-.8-.376-1.1.3a13.281,13.281,0,0,0-.6,2.725s-1.475-2.406-1.125-3.173C-8298.265-3971.144-8297.733-3971.2-8297.733-3971.2Z" transform="translate(8365.489 3991.733)" fill="#c6e3e5"></path><path id="Path_3590" data-name="Path 3590" d="M-8290.406-3962.5a9.474,9.474,0,0,0,11.893,6.024,9.321,9.321,0,0,0,6.344-11.619,9.472,9.472,0,0,0-11.891-6.022A9.318,9.318,0,0,0-8290.406-3962.5Z" transform="translate(8363.633 3992.5)" fill="#282723"></path><path id="Path_3591" data-name="Path 3591" d="M-8335.389-3866.323l-.3,9.186-1.895,2.205-5.047,2.875-3.745-.672,6.6-4.857.483-9.638Z" transform="translate(8376.313 3968.003)" fill="#e9d6b8"></path><path id="Path_3592" data-name="Path 3592" d="M-8336.369-3852.255l-1.694,1.2-.521-.408-5.62,3.045s-2.967,1.479-3.791.519c-.265-.306.068-1.312,1.018-2.01a8.148,8.148,0,0,1,1.212-.765s.194.718,1.879.992c.54.09,3.877-2.093,5.022-2.658a13.087,13.087,0,0,0,2.981-2.309C-8335.614-3854.3-8336.369-3852.255-8336.369-3852.255Z" transform="translate(8376.702 3965.136)" fill="#161711"></path><path id="Path_3593" data-name="Path 3593" d="M-8294.409-3928.809l-2.416,5.639-4.147.5-33.494,2.108s-3-.915-4.905,3.763c-2.715,6.658.835,39.992.835,39.992l4.957-.074,2.679-31.43s32.192,5.566,41.465,2.752c3.559-1.079,6.275-7.288,5.769-13.557-.4-4.914-3.719-9.436-3.719-9.436Z" transform="translate(8374.947 3982.059)" fill="#fabd87"></path><path id="Path_3594" data-name="Path 3594" d="M-8288-3927.35s-1.555-13.869-2.437-20.434-.688-17.586-.892-19.164a22.4,22.4,0,0,0-1.039-3.852s1.614-3.586,3.729-3.469c1.86.1,7.723,2.047,10.564,3.184,1.962.79.935,22.9,1.11,24.068.635,4.2,2.721,9.01,4.074,12.336a47.605,47.605,0,0,1,1.91,6.588S-8281.706-3929.34-8288-3927.35Z" transform="translate(8363.986 3992.435)" fill="#daedef"></path><path id="Path_3595" data-name="Path 3595" d="M-8289-3975.675l-1.576,1.755s-2.2,3.008-1.484,2.584c.906-.536,1.949,2.6,1.949,2.6l2.927-5.937Z" transform="translate(8363.949 3992.755)" fill="#c6e3e5"></path><g id="Group_3412" data-name="Group 3412" transform="translate(51.28 49.437)"><path id="Path_3596" data-name="Path 3596" d="M-8280.249-3932.4s2.45,1.718-6.808,2.656-23.068.266-23.068.266l21.174-3.964S-8283.112-3934.609-8280.249-3932.4Z" transform="translate(8316.759 3933.749)" fill="#e9d6b8"></path><path id="Path_3597" data-name="Path 3597" d="M-8304.739-3928.654c-4.39.569-6,2.788-7.651,3.624a31.072,31.072,0,0,0-3.263,1.983c.741-1.81,2.154-2.046,2.787-2.683s.488-.339-1.092-.242c-.895.054-2.26,1.664-3.277,2.587a3.751,3.751,0,0,1-1.485.935,18.037,18.037,0,0,1,2.229-2.9,22.624,22.624,0,0,1,4.044-3.293,19.168,19.168,0,0,1,5.938-.944C-8304.109-3929.608-8301.577-3929.062-8304.739-3928.654Z" transform="translate(8318.721 3932.799)" fill="#e9d6b8"></path><path id="Path_3598" data-name="Path 3598" d="M-8311.946-3928.3a25.6,25.6,0,0,0-3.785,1.677c-.372.327-1.861,2.169-1.861,2.169a4.647,4.647,0,0,0,1.869-1.052A39.269,39.269,0,0,1-8311.946-3928.3Z" transform="translate(8318.463 3932.505)" fill="#e9d6b8"></path></g><path id="Path_3599" data-name="Path 3599" d="M-8281.245-3943.335l-3.012-20.15s.746-4.15,2.051-5.571c1.545-1.686,4.492-1.185,4.492-1.185s3.445,2.792,3.693,18.742c.168,10.918,1.18,15.407-3.581,15.883-4.443.444-9.515.714-9.515.714l-3.374-6.589Z" transform="translate(8363.558 3991.531)" fill="#c6e3e5"></path></g><g id="Group_3414" data-name="Group 3414" transform="translate(19.69 44.215)"><rect id="Rectangle_2820" data-name="Rectangle 2820" width="29.222" height="0.593" transform="translate(8.267 14.88)" fill="#cdd5d7"></rect><path id="Path_3600" data-name="Path 3600" d="M-8335.06-3925.671a.791.791,0,0,1-.74.832h-14.985c-.407,0-.96-.294-1.458-1.46l-7.409-13.365a.767.767,0,0,1,.865-.837l15.373.454a1.429,1.429,0,0,1,.973,1.014Z" transform="translate(8359.652 3940.516)" fill="#cdd5d7"></path><path id="Path_3601" data-name="Path 3601" d="M-8334.463-3920.468h14.781a5.508,5.508,0,0,1-2.394.455H-8346.7a5.5,5.5,0,0,1-2.393-.455Z" transform="translate(8357.242 3935.94)" fill="#b7bec0"></path></g></g><g id="Group_3416" data-name="Group 3416" transform="translate(-8381.04 -4008.992)"><path id="Path_3602" data-name="Path 3602" d="M-8336.444-3975.106a5.312,5.312,0,0,1-5.348,5.277h-28.949a5.31,5.31,0,0,1-5.345-5.277v-28.6a5.313,5.313,0,0,1,5.345-5.281h28.949a5.315,5.315,0,0,1,5.348,5.281Z" transform="translate(8376.086 4008.992)" fill="#ff9e11"></path><path id="Path_3603" data-name="Path 3603" d="M-8337.321-3949.592v-13.641h-13.81Z" transform="translate(8370.391 3998.548)" fill="#ff9e11"></path></g><g id="Group_3417" data-name="Group 3417" transform="translate(-8371.41 -4001.528)"><path id="Path_3604" data-name="Path 3604" d="M-8354.749-3979.346a4.4,4.4,0,0,1-4.43,4.376,4.4,4.4,0,0,1-4.43-4.376,4.4,4.4,0,0,1,4.43-4.377A4.4,4.4,0,0,1-8354.749-3979.346Z" transform="translate(8363.608 3995.76)" fill="none" stroke="#fff" stroke-miterlimit="10" stroke-width="4.903"></path><line id="Line_747" data-name="Line 747" y1="13.131" x2="13.292" transform="translate(7.752)" fill="none" stroke="#fff" stroke-miterlimit="10" stroke-width="4.903"></line><line id="Line_748" data-name="Line 748" x2="3.323" y2="3.282" transform="translate(15.506 5.473)" fill="none" stroke="#fff" stroke-miterlimit="10" stroke-width="4.903"></line><line id="Line_749" data-name="Line 749" x2="3.323" y2="3.284" transform="translate(18.828 2.189)" fill="none" stroke="#fff" stroke-miterlimit="10" stroke-width="4.903"></line></g><g id="Group_3431" data-name="Group 3431" transform="translate(-8125.231 -3845.05)"><g id="Group_3422" data-name="Group 3422" transform="translate(22.771)"><path id="Path_3605" data-name="Path 3605" d="M-7982.458-3778.71c3.754.942,10.669,4.306,12.115,10.057,2.172,8.635-2.174,21.312,4.71,33.709,2.2,3.954-38.029,9.264-38.029,9.264l-7.762-43.63s9.7-9.467,11.679-10.108C-7995.636-3780.736-7989.952-3780.6-7982.458-3778.71Z" transform="translate(8014.28 3792.853)" fill="#daedef"></path><g id="Group_3418" data-name="Group 3418" transform="translate(0 23.481)"><path id="Path_3606" data-name="Path 3606" d="M-8012.332-3766.056c-1.4,3.489-4.924,24.229-.991,29.12.455.563-2.041,1.446-1.59,4.022.076.434.827,2.491.827,2.491l3.215.836,9.716-5.529-1.862-2.264-.879.018a1.987,1.987,0,0,1-.6-1.728c.231-.95-2.227-2.5-5.942-18.593C-8011.535-3762.42-8012.023-3766.825-8012.332-3766.056Z" transform="translate(8015.125 3766.144)" fill="#c6e3e5"></path><path id="Path_3607" data-name="Path 3607" d="M-8007.615-3729.816l2.874-.633,1.164-.185a2.128,2.128,0,0,0,.639,1.376l-2.227.07-2.612.56-3.153,1.8Z" transform="translate(8014.167 3758.039)" fill="#dbdac6"></path></g><path id="Path_3608" data-name="Path 3608" d="M-8003.114-3726.1a8.6,8.6,0,0,0-4.115,1.139c-1.439.885-2.764,2.814-1.439,3.856a21.423,21.423,0,0,0,3.362,2.02S-8000.248-3718.947-8003.114-3726.1Z" transform="translate(8013.775 3780.485)" fill="#c4d1e1"></path><path id="Path_3609" data-name="Path 3609" d="M-8008.631-3719.675l1.352-.29s4.66-.423,5.322-.06,2.8,1.81,2.8,1.81l.438.4a2.25,2.25,0,0,1-2.442-.331c-1.405-.981-1.522-.23-1.522-.23l.236,1.244-.017,1.586.217.667s.2.363.042.5a.882.882,0,0,1-.884.2l-1.419-2.476-.386,2.691a.979.979,0,0,1-.636.461c-.417.089-.419-.021-.419-.021l-.32-.685a.841.841,0,0,1-.282.472,1.368,1.368,0,0,1-.844.236l.132-2.835-.581,1.44a1.068,1.068,0,0,1-.638.46c-.47.11-.6.147-.6.147Z" transform="translate(8013.743 3779.133)" fill="#e4eef3"></path><g id="Group_3420" data-name="Group 3420" transform="translate(12.279 18.397)"><g id="Group_3419" data-name="Group 3419" transform="translate(3.628)"><path id="Path_3610" data-name="Path 3610" d="M-7981.175-3734.867s-3.381,8.568-11.509,10.861c-1.408.4-2.272,1.917-1.594,2.407.871.625,2.061.759,4.1.753,4.251-.01,10.034-1.331,14.033-5.2,5.923-5.73,7.789-8.334,7.187-11.221S-7981.175-3734.867-7981.175-3734.867Z" transform="translate(7994.514 3764.833)" fill="#e9d6b8"></path><path id="Path_3611" data-name="Path 3611" d="M-7964.759-3769.812c1.717,2.825,2.716,7.37,2.7,13.869-.011,5.028-4.354,13.268-5.017,15.8-.111.425-.376,2.238-.376,2.238l-4.811,4.72-9.651-6.539,2.934-4.5.876.093a14.924,14.924,0,0,0,.405-3.454c-.15-.966,2.672-13.942,4.068-22.26C-7972.825-3774.643-7966.466-3772.617-7964.759-3769.812Z" transform="translate(7991.637 3772.731)" fill="#c6e3e5"></path><path id="Path_3612" data-name="Path 3612" d="M-7972.271-3736.232l-2.81-.87-1.145-.284a2.13,2.13,0,0,1-.751,1.317l2.213.254,2.555.781,2.991,2.058Z" transform="translate(7990.511 3764.664)" fill="#6b6b6b"></path></g><path id="Path_3613" data-name="Path 3613" d="M-7993.138-3720.262l-4.915-1.346s-1.393,1.867-1.129,2.334a12.954,12.954,0,0,1,0,3.227l2.382,2.021,1.938-.641s.133-.844-.529-.929.446-.562.8-.761S-7991.4-3718.024-7993.138-3720.262Z" transform="translate(7999.214 3761.063)" fill="#e9d6b8"></path></g><path id="Rectangle_2821" data-name="Rectangle 2821" d="M1.937,0H7.025A1.938,1.938,0,0,1,8.963,1.938v9.64a1.938,1.938,0,0,1-1.938,1.938H1.937A1.937,1.937,0,0,1,0,11.578V1.937A1.937,1.937,0,0,1,1.937,0Z" transform="translate(13.949 6.769) rotate(-19.313)" fill="#e2c59c"></path><g id="Group_3421" data-name="Group 3421" transform="translate(8.98)"><path id="Path_3614" data-name="Path 3614" d="M-7998.388-3775.813a1.938,1.938,0,0,0,2.384,1.352l8.417-2.316a1.941,1.941,0,0,0,1.353-2.387l-3.434-12.464a1.939,1.939,0,0,0-2.384-1.353l-8.415,2.318a1.938,1.938,0,0,0-1.354,2.383Z" transform="translate(8003.124 3795.766)" fill="#e9d6b8"></path><path id="Path_3615" data-name="Path 3615" d="M-8001.491-3784.9a7.391,7.391,0,0,1-1.874-1.578,2.893,2.893,0,0,1,.551-2.664c.784-.8,1.842-.005,1.842-.005s-1.266,1.242-1.256,1.576S-8001.491-3784.9-8001.491-3784.9Z" transform="translate(8003.489 3794.954)" fill="#163f59"></path><path id="Path_3616" data-name="Path 3616" d="M-7987.579-3787.058s-.047-5.143-.669-6.478-1.045-2.27-2.8-1.951c-2.627.473-2.509,1.025-3.972.592s-4.217-1.7-5.038-1.673a2.67,2.67,0,0,0-2.681,3.463,2.761,2.761,0,0,1-.521,2.6c.161.191.687.267,1.613.448,2.66.528,4.126.376,5.788-.586s4.722-2.9,5.475-1.679,1.716,5.314,1.957,5.583S-7987.828-3786.737-7987.579-3787.058Z" transform="translate(8003.438 3796.569)" fill="#194866"></path><path id="Path_3617" data-name="Path 3617" d="M-7985.317-3779.827a.645.645,0,0,0,.8.451l1.817-.5a.643.643,0,0,0,.452-.794l-.916-3.323a.646.646,0,0,0-.8-.452l-1.816.5a.646.646,0,0,0-.451.793Z" transform="translate(7999.556 3793.807)" fill="#e9d6b8"></path><path id="Rectangle_2822" data-name="Rectangle 2822" d="M.835,0h1.5a.839.839,0,0,1,.839.839V3.9a.836.836,0,0,1-.836.836H.839A.839.839,0,0,1,0,3.9V.835A.835.835,0,0,1,.835,0Z" transform="translate(2.311 13.02) rotate(-15.386)" fill="#e9d6b8"></path><path id="Path_3618" data-name="Path 3618" d="M-7987.154-3782.542s1.354,4.906,1.8,6.544c.406,1.479.711,4.886-7.645,7.188-4.944,1.364-5.767-2.322-6.095-3.515a10.98,10.98,0,0,1,.408-4.583c.011-.022.558,2.023.558,2.023a4.1,4.1,0,0,1,2.835-2.906c3.793-1.041,5.266.939,6.928.442C-7987.084-3777.735-7986.693-3780.1-7987.154-3782.542Z" transform="translate(8002.506 3793.367)" fill="#194866"></path><path id="Path_3619" data-name="Path 3619" d="M-7992-3773.109l-2.594.711a.64.64,0,0,1-.8-.451l-.1-.36,3.842-1.061.1.364A.646.646,0,0,1-7992-3773.109Z" transform="translate(8001.663 3791.479)" fill="#e9d6b8"></path></g></g><path id="Path_3620" data-name="Path 3620" d="M-8044.258-3713.251c1.2,3.309,22.186,15.5,29.223,14.776l21.2,1.011c18.028-2.2,26.558-30.214,26.558-30.214-.718-7.033-18.478,3.165-24.807,6.321-10.028,5-16.366,5.256-16.366,5.256-6.707.688-14.483-4.486-22.949-4.666C-8040.7-3720.966-8046.145-3718.471-8044.258-3713.251Z" transform="translate(8044.629 3781.399)" fill="#081832"></path><g id="Group_3425" data-name="Group 3425" transform="translate(5.771 44.318)"><path id="Path_3621" data-name="Path 3621" d="M-7995.179-3713.093a.159.159,0,0,1,.018-.028V-3714l-36.492-.665-.017.881a.061.061,0,0,0,0,.029l.092.164a2.4,2.4,0,0,0,2.257.946l31.755.578a2.381,2.381,0,0,0,2.289-.858Z" transform="translate(8035.901 3733.559)" fill="#b6c2c9"></path><path id="Path_3622" data-name="Path 3622" d="M-7995.785-3712.853s0,.017,0,.024l.087.135a1.494,1.494,0,0,0,.525.458l5.55.1a2.514,2.514,0,0,0,2.2-.688l.092-.131c0-.009.011-.015.016-.025l0-.431-8.455-.154Z" transform="translate(8027.711 3733.307)" fill="#d8e5ed"></path><g id="Group_3423" data-name="Group 3423" transform="translate(8.772 19.179)"><path id="Path_3623" data-name="Path 3623" d="M-8007.552-3713.343l-18.234-.33.012-.621,18.233.332Z" transform="translate(8025.786 3714.294)" fill="#879ba6"></path></g><g id="Group_3424" data-name="Group 3424"><path id="Path_3624" data-name="Path 3624" d="M-8005.409-3719.784l-4.4-18.021a1.2,1.2,0,0,0-1.068-.875l-25.6-.465a.638.638,0,0,0-.646.844l4.405,18.017Z" transform="translate(8037.152 3739.145)" fill="#d9e1e4"></path><path id="Path_3625" data-name="Path 3625" d="M-8015.555-3727.077a1.235,1.235,0,0,1-1.249,1.638,2.306,2.306,0,0,1-2.065-1.7,1.233,1.233,0,0,1,1.251-1.635A2.3,2.3,0,0,1-8015.555-3727.077Z" transform="translate(8032.99 3736.777)" fill="#b6c2c9"></path></g></g><g id="Group_3427" data-name="Group 3427" transform="translate(43.06 77.492)"><path id="Path_3626" data-name="Path 3626" d="M-7977.859-3685.05c-2.529.431-4.452-2.5-4.452-2.5l-6.525-5.133,1.381-3.474,12.7,5.711S-7975.334-3685.482-7977.859-3685.05Z" transform="translate(7988.836 3696.161)" fill="#e9d6b8"></path><path id="Path_3627" data-name="Path 3627" d="M-7980.394-3686.52a6.49,6.49,0,0,0,.479,1.643c.487,1.337,1.084,1.8,1.713,1.99,2.437.717,4.189.354,10.048,1.483s7.614.279,9.33-2.421-.063-4.818-2.921-5.038c-4.136-.311-6.438.162-8.59-.168-2.258-.343-2.4-.847-3.719-1.66-1.241-.76-2.379,3.771-1.207,4.825C-7974.229-3684.944-7979.516-3684.8-7980.394-3686.52Z" transform="translate(7986.909 3694.932)" fill="#b0bfde"></path><path id="Path_3628" data-name="Path 3628" d="M-7978.9-3683.119c2.437.718,4.192.354,10.05,1.484s7.615.277,9.33-2.421a3.12,3.12,0,0,0,.369-3.234c1.289.886,1.729,2.437.569,4.261-1.715,2.7-3.47,3.55-9.33,2.421s-7.612-.766-10.048-1.483a2.267,2.267,0,0,1-1.361-1.206A2.041,2.041,0,0,0-7978.9-3683.119Z" transform="translate(7986.664 3694.136)" fill="#fff"></path><path id="Path_3629" data-name="Path 3629" d="M-7980.386-3685.181a.674.674,0,0,1-.008-.08.769.769,0,0,0,.057.091Z" transform="translate(7986.909 3693.673)" fill="#e9d6b8"></path><g id="Group_3426" data-name="Group 3426" transform="translate(15.158 5.455)"><path id="Path_3630" data-name="Path 3630" d="M-7964.074-3683.946c.188.069.357-.286.416-.783a14.147,14.147,0,0,1,.676-3.019c.172-.492.166-.93-.04-.987s-.536.3-.7.782a14.044,14.044,0,0,0-.64,2.984C-7964.411-3684.474-7964.262-3684.018-7964.074-3683.946Z" transform="translate(7968.094 3689.012)" fill="#fff"></path><path id="Path_3631" data-name="Path 3631" d="M-7966.431-3684.29c.2.042.378-.3.433-.773a12.861,12.861,0,0,1,.67-2.838c.166-.466.154-.868-.062-.895s-.559.322-.716.785a12.605,12.605,0,0,0-.631,2.81C-7966.784-3684.739-7966.626-3684.334-7966.431-3684.29Z" transform="translate(7968.636 3689.025)" fill="#fff"></path><path id="Path_3632" data-name="Path 3632" d="M-7968.893-3684.441c.2.029.406-.34.481-.823a14.454,14.454,0,0,1,.8-2.929c.183-.481.185-.887-.043-.9s-.585.369-.765.844a14.071,14.071,0,0,0-.754,2.9C-7969.247-3684.874-7969.1-3684.466-7968.893-3684.441Z" transform="translate(7969.195 3689.092)" fill="#fff"></path></g></g><path id="Path_3633" data-name="Path 3633" d="M-7990.994-3698.089s-44.841-18.435-47.4-18.462c-8.662-.082-6.676,8.684-2.288,12.81,5.179,4.863,44.547,13.761,44.547,13.761Z" transform="translate(8044.585 3778.306)" fill="#163f59"></path><g id="Group_3430" data-name="Group 3430" transform="translate(13.953 44.259)"><path id="Path_3634" data-name="Path 3634" d="M-8000.115-3693.439l12.241-11.607-5.216-5.169-13.368,14.052Z" transform="translate(8021.965 3732.602)" fill="#e9d6b8"></path><path id="Path_3635" data-name="Path 3635" d="M-8001.525-3709.186s31.15-28.555,33.251-29.408c7.113-2.886,11.52,4.968,11.269,7.678-.324,3.519-31.974,32.119-31.974,32.119Z" transform="translate(8020.839 3739.222)" fill="#194866"></path><g id="Group_3429" data-name="Group 3429" transform="translate(0 34.121)"><path id="Path_3636" data-name="Path 3636" d="M-8025.7-3689.063c-.729.673-.855,2.651-.855,2.651s10.4,3.935,14.048,4a18.54,18.54,0,0,0,4.289-.816c.277-.074.91-.787,1.179-.866.5-.145.611.337,1.04.2a13.112,13.112,0,0,0,1.926-.708c2.194-4.671,1.453-6.97,1.453-6.97s-4.778,1.37-3.96.3c1.752-2.287-3.257-4.627-4.37-3.408C-8015.4-3689.8-8023.589-3691.011-8025.7-3689.063Z" transform="translate(8026.551 3695.01)" fill="#b0bfde"></path><path id="Path_3637" data-name="Path 3637" d="M-8026.274-3686.049c3.2,1.27,9.91,3.892,11.246,3.986,5.471.389,9.294-1.557,11.849-2.7a21.5,21.5,0,0,1-.89,2.209,13.1,13.1,0,0,1-1.926.708c-.429.135-.542-.347-1.04-.2-.269.08-.9.792-1.179.866a18.527,18.527,0,0,1-4.289.816c-3.651-.069-14.048-4-14.048-4A7.13,7.13,0,0,1-8026.274-3686.049Z" transform="translate(8026.551 3692.965)" fill="#fff"></path><g id="Group_3428" data-name="Group 3428" transform="translate(7.61 2.182)"><path id="Path_3638" data-name="Path 3638" d="M-8016.676-3690.03c-.1.177.31.391.893.514a19.84,19.84,0,0,1,3.51,1.062c.57.233,1.087.286,1.166.088s-.314-.578-.876-.8a19.865,19.865,0,0,0-3.473-1.024C-8016.03-3690.3-8016.579-3690.212-8016.676-3690.03Z" transform="translate(8016.69 3691.739)" fill="#fff"></path><path id="Path_3639" data-name="Path 3639" d="M-8013.655-3691.092c-.087.185.312.447.877.61a20.043,20.043,0,0,1,3.394,1.337c.546.274,1.043.358,1.116.152s-.3-.625-.845-.893a19.681,19.681,0,0,0-3.362-1.288C-8013.039-3691.332-8013.564-3691.273-8013.655-3691.092Z" transform="translate(8016 3691.973)" fill="#fff"></path><path id="Path_3640" data-name="Path 3640" d="M-8010.747-3692.024c-.083.192.3.492.857.7a20.448,20.448,0,0,1,3.271,1.591c.526.316,1,.429,1.072.209s-.292-.67-.812-.975a19.992,19.992,0,0,0-3.246-1.548C-8010.152-3692.245-8010.666-3692.219-8010.747-3692.024Z" transform="translate(8015.336 3692.183)" fill="#fff"></path></g></g></g></g><g id="Group_3433" data-name="Group 3433" transform="translate(-8018.411 -3832.222)"><g id="Group_3432" data-name="Group 3432"><path id="Path_3641" data-name="Path 3641" d="M-7863.458-3742.076c0,4.533-9.19,65.038-38.9,34.966-15.285-15.469,19.69-13.6,21.063-27.132.458-4.51,3.282-20.84,8.824-8.206C-7870.517-3737.985-7863.458-3746.607-7863.458-3742.076Z" transform="translate(7906.22 3772.462)" fill="#163f59"></path><path id="Path_3642" data-name="Path 3642" d="M-7881.756-3746.126s1.307-.688-2.348-7.419a154.942,154.942,0,0,0-10.62-15.839l7.045,16.213S-7884.7-3747.081-7881.756-3746.126Z" transform="translate(7903.596 3777.536)" fill="#e9d6b8"></path><path id="Path_3643" data-name="Path 3643" d="M-7874.227-3734.13l-10.147-18.808-.475-1.135-5.759,2.549s8.024,14.444,8.585,15.076a66.247,66.247,0,0,1,4.2,7.9c.39,1.169,3.022,6.749,6.712,4.7S-7874.227-3734.13-7874.227-3734.13Z" transform="translate(7902.657 3774.042)" fill="#fabd87"></path><path id="Path_3644" data-name="Path 3644" d="M-7891.209-3766.537c-1.791-3.173-1.033-5.3-1.27-6.8a24.4,24.4,0,0,1-.232-3.109c-.906,1.361-.365,2.4-.5,3.132s.005.483-.714-.605c-.411-.619.041-2.3.185-3.41a2.922,2.922,0,0,0-.082-1.432,14.287,14.287,0,0,0-.932,2.867,17.624,17.624,0,0,0-.3,4.254,15.158,15.158,0,0,0,2.3,4.379C-7891.565-3765.661-7889.917-3764.248-7891.209-3766.537Z" transform="translate(7903.678 3779.676)" fill="#e9d6b8"></path><path id="Path_3645" data-name="Path 3645" d="M-7841.039-3747.315s-1.307-.69,2.348-7.42a154.782,154.782,0,0,1,10.618-15.838l-7.043,16.213S-7838.093-3748.271-7841.039-3747.315Z" transform="translate(7891.395 3777.808)" fill="#e9d6b8"></path><path id="Path_3646" data-name="Path 3646" d="M-7849.712-3735.321l10.147-18.808.475-1.138,5.758,2.55s-8.022,14.446-8.584,15.08-3.551,6.841-4.2,7.9c-2.136,3.5-2.136,5.455-2.618,5C-7851.757-3727.614-7849.712-3735.321-7849.712-3735.321Z" transform="translate(7893.478 3774.314)" fill="#fabd87"></path><path id="Path_3647" data-name="Path 3647" d="M-7828.971-3767.724c1.793-3.177,1.033-5.3,1.27-6.8a24.631,24.631,0,0,0,.234-3.109c.9,1.36.364,2.406.5,3.132s0,.482.714-.606c.41-.62-.042-2.3-.186-3.41a2.948,2.948,0,0,1,.082-1.431,14.233,14.233,0,0,1,.931,2.866,17.5,17.5,0,0,1,.3,4.253,15.151,15.151,0,0,1-2.3,4.38C-7828.614-3766.849-7830.26-3765.437-7828.971-3767.724Z" transform="translate(7888.696 3779.947)" fill="#e9d6b8"></path><path id="Path_3648" data-name="Path 3648" d="M-7885.5-3591.156l-2.089,9.843s-4.635,3.534-6.135,3.948-1.188-.15-1.023-.473,2.963-2.35,3.627-3.648,1.711-9.827,1.9-10.235S-7885.5-3591.156-7885.5-3591.156Z" transform="translate(7903.635 3737.012)" fill="#e9d6b8"></path><path id="Path_3649" data-name="Path 3649" d="M-7840.893-3587.943a70.362,70.362,0,0,1,1.943,7.5c.211,1.912-.116,2.542.472,3.119s4.743,5.153,5.661,5.1a.863.863,0,0,0,.863-.922s-3.259-3.486-3.8-4.856-1.125-9.12-1.174-9.906S-7840.893-3587.943-7840.893-3587.943Z" transform="translate(7891.31 3736.199)" fill="#e9d6b8"></path><path id="Path_3650" data-name="Path 3650" d="M-7865.885-3680.654l-8.683,35.428-9.207,34.068-5.327-.83s6.764-34.915,6.942-37.971,1.512-27.941,5.943-33.241S-7865.885-3680.654-7865.885-3680.654Z" transform="translate(7902.313 3758.286)" fill="#194866"></path><path id="Path_3651" data-name="Path 3651" d="M-7866.2-3678.239s-5.071-5.057-8.133-2.026a23.778,23.778,0,0,0-.816,2.958c2.8,4.68,5.346,8.546,5.954,9.573.266.451.984,1.768,1.98,3.613l1.132-6.339Z" transform="translate(7899.128 3757.417)" fill="#163f59"></path><path id="Path_3652" data-name="Path 3652" d="M-7851.109-3685.349s4.557,19.192,5.213,29.647,3.677,40.954,3.677,40.954l.335,5.344-4.166.121-8.935-38.673-8.458-35.556Z" transform="translate(7896.457 3758.357)" fill="#194866"></path><path id="Path_3653" data-name="Path 3653" d="M-7855.467-3744.282a7.774,7.774,0,0,1-7.721,7.828,7.775,7.775,0,0,1-7.722-7.828,7.775,7.775,0,0,1,7.722-7.826A7.773,7.773,0,0,1-7855.467-3744.282Z" transform="translate(7898.161 3773.593)" fill="#163f59"></path><path id="Path_3654" data-name="Path 3654" d="M-7864.242-3739.236s.736,4.191.122,5.353-4.777,3.844-5.392,4.657,1.227,7.1,7.232,6.17,8.495-3.85,8.495-4.783,2.778-2.551.819-3.249-5.147-1.164-6.006-2.1a6.65,6.65,0,0,1-1.348-5.7C-7859.707-3741.33-7864.242-3739.236-7864.242-3739.236Z" transform="translate(7897.867 3770.846)" fill="#e9d6b8"></path><path id="Path_3655" data-name="Path 3655" d="M-7859.929-3749.831c-.125-.035-.253-.06-.384-.083a7.887,7.887,0,0,1-3.337,4.479,11.362,11.362,0,0,1-1.383.846v1.352a3.813,3.813,0,0,0,3.982,3.617,3.812,3.812,0,0,0,3.983-3.617v-3.045A8.154,8.154,0,0,1-7859.929-3749.831Z" transform="translate(7896.819 3773.093)" fill="#e9d6b8"></path><path id="Path_3656" data-name="Path 3656" d="M-7855.048-3692l-18.242,5.041,2.854-15.909-.648-18.662a28.894,28.894,0,0,0,6.894,1.537c2.111.127,6.619-1.537,6.619-1.537Z" transform="translate(7898.704 3766.615)" fill="#005579"></path><path id="Path_3657" data-name="Path 3657" d="M-7875.26-3724.406s1.488,10.426,1.723,14.626c.424,7.571-6.607,15.149-6.975,17.6s2.2,4.753,2.2,4.753a9.89,9.89,0,0,0,2.45,1.048c.857.114,2.495-.668,3.064-3.492.706-3.494,2.878-15.518,3.31-17.694.612-3.083.123-12.1.612-13.269s2.267-4.948,2.023-5.877a9.426,9.426,0,0,0-2.023-2.621S-7874.281-3726.617-7875.26-3724.406Z" transform="translate(7900.361 3768.396)" fill="#fabd87"></path><path id="Path_3658" data-name="Path 3658" d="M-7852.783-3729.788s-2.39.96-3.125,1.31-.367,4.19,0,4.713,1.01,12.311,1.1,15.1.46,13.792.92,15.8.185,4.362,2.389,5.15,6.345-2.908,6.345-2.908-3.028-5.876-3.579-8.233-1.753-5.359-1.938-8.937a51.117,51.117,0,0,1,1.277-11.873c.752-3.168,1.11-7.508,1.295-8.033S-7852.047-3729.526-7852.783-3729.788Z" transform="translate(7894.833 3768.499)" fill="#fabd87"></path><path id="Path_3659" data-name="Path 3659" d="M-7888.044-3578.847a2.09,2.09,0,0,1-.015,1.281c-.2.5-.977,1.911-.977,1.911l-1.082.229.151-.682a23.71,23.71,0,0,1-3.285,2.107c-1.033.417-3.248,1.53-4.248.935a.622.622,0,0,1-.264-.5s2.105-1.453,2.434-1.655.842.436,1.656.153a27.375,27.375,0,0,0,3.973-2.24A11.138,11.138,0,0,0-7888.044-3578.847Z" transform="translate(7904.289 3734.05)" fill="#161711"></path><path id="Path_3660" data-name="Path 3660" d="M-7838.29-3575.776a3.312,3.312,0,0,0-.024,1.3,6.142,6.142,0,0,0,.585,1.333l.952.441a23.927,23.927,0,0,0,2.74,2.5c.89.561,2.773,1.978,3.774,1.534a.634.634,0,0,0,.315-.455s-1.734-1.74-2.007-1.986-.835.309-1.546-.087a25.7,25.7,0,0,1-3.339-2.784A18.644,18.644,0,0,1-7838.29-3575.776Z" transform="translate(7890.734 3733.349)" fill="#161711"></path><path id="Path_3661" data-name="Path 3661" d="M-7853.117-3730.254l-2.665,1.66a2.124,2.124,0,0,1,1.1,1.046,12.9,12.9,0,0,1,.644,1.833l2.39-3.842S-7853.117-3730.517-7853.117-3730.254Z" transform="translate(7894.708 3768.616)" fill="#f8c44f"></path><path id="Path_3662" data-name="Path 3662" d="M-7865.479-3729.9l.431.676,1.376,2.32s-.29-.728-1.349.06a4.211,4.211,0,0,0-1.1,1.833l-.736-4.19Z" transform="translate(7897.236 3768.525)" fill="#f8c44f"></path></g></g><g id="Group_3434" data-name="Group 3434" transform="translate(-8030.643 -3923.201)"><path id="Path_3663" data-name="Path 3663" d="M-7844.659-3893.245c-30.1-11.215-61.251-2.18-73.486,30.657s5.409,60.056,35.51,71.269c23.476,8.749,37.762-4.674,62.441-11.391,4.883-1.329,18.978,7.072,18.978,7.072l15.3-41.058s-16.159-2.868-18.977-7.072C-7819.169-3865-7821.18-3884.5-7844.659-3893.245Z" transform="translate(7922.069 3897.83)" fill="#ff9e11"></path><path id="Path_3664" data-name="Path 3664" d="M-7801.455-3792.536c-34.1,9.281-53.845,27.832-86.288,15.743a101.609,101.609,0,0,1-19.362-9.6c6.879,8.272,16.485,14.816,27.885,19.062,23.476,8.749,37.762-4.674,62.441-11.391,4.883-1.329,18.978,7.072,18.978,7.072l7.017-18.832C-7794.987-3792.123-7799.039-3793.194-7801.455-3792.536Z" transform="translate(7918.654 3873.844)" fill="#ffab01"></path><path id="Path_3665" data-name="Path 3665" d="M-7765.819-3777.064l5.659,2.108a18.129,18.129,0,0,0,23.319-10.657l3.166-8.494a18.132,18.132,0,0,0-10.66-23.318l-5.658-2.108Z" transform="translate(7886.408 3879.961)" fill="#3d7aa8"></path><path id="Path_3666" data-name="Path 3666" d="M-7861.316-3812.97l-6.075-9.659,10.92-3.346-6.071-9.666,10.92-3.348-6.066-9.679,10.92-3.348-6.064-9.685,10.929-3.371" transform="translate(7909.59 3890.354)" fill="none" stroke="#fabd87" stroke-miterlimit="10" stroke-width="8.211"></path><path id="Path_3667" data-name="Path 3667" d="M-7846.27-3803.7l31.578,1.049,35.633,13.276" transform="translate(7904.77 3876.347)" fill="none" stroke="#fabd87" stroke-miterlimit="10" stroke-width="8.211"></path><path id="Path_3668" data-name="Path 3668" d="M-7830.89-3844.978l24.563,19.874,35.633,13.278" transform="translate(7901.259 3885.768)" fill="none" stroke="#fabd87" stroke-miterlimit="10" stroke-width="8.211"></path><rect id="Rectangle_2823" data-name="Rectangle 2823" width="28.327" height="4.708" transform="matrix(0.349, -0.937, 0.937, 0.349, 127.819, 92.425)" fill="#34688f"></rect><rect id="Rectangle_2824" data-name="Rectangle 2824" width="20.393" height="4.707" transform="matrix(0.349, -0.937, 0.937, 0.349, 135.783, 95.394)" fill="#34688f"></rect></g><g id="Group_3436" data-name="Group 3436" transform="translate(-8251.922 -3841.733)"><g id="Group_3435" data-name="Group 3435" transform="translate(0 1.914)"><path id="Path_3669" data-name="Path 3669" d="M-8199.183-3613.237c.269-.318.073-1.157.073-1.157s-4.673-.513-6.178-.164a7.757,7.757,0,0,0-1.67.774c-.105.059-.29.412-.395.47-.187.11-.286-.076-.445.023a5.405,5.405,0,0,0-.715.486c-.41,2.109.135,2.96.135,2.96s3.848,1.177,4.726.394C-8201.422-3611.433-8199.767-3612.54-8199.183-3613.237Z" transform="translate(8208.758 3749.825)" fill="#161711"></path><path id="Path_3670" data-name="Path 3670" d="M-8177.22-3611.274l.668,3.426H-8173s.2-.485.5-.485c.254,0,.581.485.926.485h9.032s.16-.72-.037-.969a3.432,3.432,0,0,0-1.09-.459c-1.834-.508-7.083-2.091-8-3.815C-8172.781-3615.19-8177.22-3611.274-8177.22-3611.274Z" transform="translate(8201.581 3749.604)" fill="#161711"></path><path id="Path_3671" data-name="Path 3671" d="M-8176.406-3766.959l.851-4.152s3,.227,3.58-1.363c1.177-3.184.192-8.272-.518-9.7-2.021-4.061-2.876-11.172-12.326-5.518-3.595,2.152,1.956,12.578,2.369,14.836a9.443,9.443,0,0,1-.815,4.856l2.211,1.632Z" transform="translate(8203.591 3789.791)" fill="#e9d6b8"></path><path id="Path_3672" data-name="Path 3672" d="M-8197.062-3709.842l-.312,13.092s-5.013-5.441-5.5-11.63S-8197.378-3710.326-8197.062-3709.842Z" transform="translate(8207.442 3771.97)" fill="#e2c59c"></path><path id="Path_3673" data-name="Path 3673" d="M-8192.773-3674.333s1.384.594-2.69,19.628c-2.939,13.706-5.449,23.733-6.622,28.272-.456,1.763-.965,1.445-.965,1.445l-3.885.427-1.85-1.578,5.551-31.057Z" transform="translate(8208.785 3763.439)" fill="#163f59"></path><path id="Path_3674" data-name="Path 3674" d="M-8157.457-3721.522l-7.951,15s15.174-10.8,14.222-16.742S-8157.457-3721.522-8157.457-3721.522Z" transform="translate(8198.885 3775.121)" fill="#e9d6b8"></path><path id="Path_3675" data-name="Path 3675" d="M-8197.474-3754.963s-3.224,1.939-5.544,17.692-.841,15.152-.841,15.152l.422,3.588,6.024.638,3.258-13.6Z" transform="translate(8207.767 3781.842)" fill="#fabd87"></path><path id="Path_3676" data-name="Path 3676" d="M-8182.179-3704.842s-8.895,36.239-15.875,52.486c-4.092,9.514-4.128-8.752-4.128-8.752l6.356-52.626,18.562-.884S-8179.366-3713.979-8182.179-3704.842Z" transform="translate(8207.278 3772.634)" fill="#163f59"></path><path id="Path_3677" data-name="Path 3677" d="M-8184.654-3714.91s6.721,46.919,7.426,49.038c2.391,7.163,6.076-2.229,6.918-4.614s2.251-20.063,1.97-32.959l-.281-12.9Z" transform="translate(8203.277 3773.027)" fill="#163f59"></path><path id="Path_3678" data-name="Path 3678" d="M-8176.585-3666.717s-1.017,5.6-1.861,12.745c-.622,5.25-.638,20.246.347,30.662.058.636,6.789-1.3,6.789-1.3s2.455-29.152,3.018-35.678S-8172.366-3671.38-8176.585-3666.717Z" transform="translate(8201.96 3762.137)" fill="#163f59"></path><path id="Path_3679" data-name="Path 3679" d="M-8195.705-3756.632l7.938-3.544,2.188-2.039,8.438-.2,1.478,2.393,6.541,2.791s1.613,2.5.208,11.765c-1.553,10.269-1.884,25.791-1.884,25.791l-24.728,1.174S-8193.385-3751.65-8195.705-3756.632Z" transform="translate(8205.8 3783.543)" fill="#ff9e11"></path><path id="Path_3680" data-name="Path 3680" d="M-8164.192-3755.76s1.471-1.613,5.056,2.772c6.113,7.477,9.071,16.748,9.7,18.545s1.446,4.334-1.055,7.316c-1.912,2.283-2.53,3.052-2.53,3.052l-5.488-3.366.864-1.616.616-.8s-2.955-6.383-6.118-12.165S-8164.192-3755.76-8164.192-3755.76Z" transform="translate(8198.766 3782.09)" fill="#ff9e11"></path></g><path id="Path_3681" data-name="Path 3681" d="M-8175.4-3781.547s-1.07-.647-1.234.16.413,2.588.9,2.75.654,2.344.654,2.344l-1.313,2.425h-6.653s-2.055-.887-2.221-2.344-1.805-11.722-1.805-11.722l4.682-2.426a31.185,31.185,0,0,1,4.191-1.7c2.647-.747,3.2.646,3.12,1.372s.741.81,1.808.81,2.385.807,1.809,1.294c-.239.2.823.839.4,1.611-.6,1.1-2.62,1.462-2.786,3.241C-8173.91-3782.923-8174.249-3780.255-8175.4-3781.547Z" transform="translate(8203.827 3792.271)" fill="#194866"></path></g><g id="Group_3440" data-name="Group 3440" transform="translate(-8290.946 -3899.235)"><circle id="Ellipse_717" data-name="Ellipse 717" cx="26.059" cy="26.059" r="26.059" transform="translate(0)" fill="#edf6f8"></circle><path id="Path_3682" data-name="Path 3682" d="M-8203.879-3814.522c.629,1.191,7.223,14.564,7.223,14.564l-16.148-10.074Z" transform="translate(8248.728 3854.851)" fill="#edf6f8"></path><g id="Group_3437" data-name="Group 3437" transform="translate(21.659 23.301)"><path id="Path_3683" data-name="Path 3683" d="M-8219.271-3819.855h-12.016v-16.73h2.315v14.415h9.7Z" transform="translate(8231.287 3836.585)" fill="#163f59"></path></g><g id="Group_3438" data-name="Group 3438" transform="translate(17.693 22.144)"><path id="Path_3684" data-name="Path 3684" d="M-8223.984-3821.355h-2.315v-14.415h-10.125v-2.315h12.44Z" transform="translate(8236.425 3838.085)" fill="#163f59"></path></g><g id="Group_3439" data-name="Group 3439" transform="translate(21.19 9.435)"><path id="Path_3685" data-name="Path 3685" d="M-8227.07-3844.9a4.83,4.83,0,0,1-4.824-4.824,4.83,4.83,0,0,1,4.824-4.825,4.831,4.831,0,0,1,4.825,4.825A4.83,4.83,0,0,1-8227.07-3844.9Zm0-7.334a2.512,2.512,0,0,0-2.509,2.51,2.511,2.511,0,0,0,2.509,2.509,2.512,2.512,0,0,0,2.51-2.509A2.513,2.513,0,0,0-8227.07-3852.237Z" transform="translate(8231.895 3854.552)" fill="#163f59"></path></g></g></g></svg>