<svg xmlns="http://www.w3.org/2000/svg" xmlns:xlink="http://www.w3.org/1999/xlink" width="156" height="156" viewBox="0 0 156 156">
  <defs>
    <rect id="rect-1" width="156" height="156" x="0" y="0"/>
    <mask id="mask-2" maskContentUnits="userSpaceOnUse" maskUnits="userSpaceOnUse">
      <rect width="156" height="156" x="0" y="0" fill="black"/>
      <use fill="white" xlink:href="#rect-1"/>
    </mask>
  </defs>
  <g>
    <use fill="none" xlink:href="#rect-1"/>
    <g mask="url(#mask-2)">
      <path fill="rgb(0,86,137)" fill-rule="evenodd" d="M129.1875 124.3125H107.25v9.75h21.9375c1.34619408 0 2.4375-1.09130592 2.4375-2.4375v-4.875c0-1.34619408-1.09130592-2.4375-2.4375-2.4375z"/>
      <path fill="rgb(0,86,137)" fill-rule="evenodd" d="M48.75 124.3125h-19.5v-4.095c-.00279028-12.19846779 7.56501682-23.1178711 18.988125-27.3975L68.25 85.3125c0 5.38477631 4.36522369 9.75 9.75 9.75s9.75-4.36522369 9.75-9.75l20.011875 7.5075c11.42310818 4.2796289 18.99091528 15.19903221 18.988125 27.3975v4.095h-19.5v24.375h-58.5v-24.375z"/>
      <path fill="rgb(0,86,137)" fill-rule="evenodd" d="M107.25 21.9375V34.125L102.375 39h-3.729375c-3.6911924-.00870127-7.06430085-2.0909833-8.72625-5.386875L87.75 29.25l-5.50875 4.411875C77.91749694 37.12113253 72.54413854 39.00395732 67.006875 39H53.625l-12.1875-7.3125 7.3125-9.75L39 7.3125h53.625c8.07716447 0 14.625 6.54783553 14.625 14.625z"/>
      <path fill="rgb(0,86,137)" fill-rule="evenodd" d="M78 56.0625c-4.96495597.12503999-9.88786652.94552508-14.625 2.4375v17.0625c.00803108 2.68905455 2.18594545 4.86696892 4.875 4.875h19.5c2.68905455-.00803108 4.86696892-2.18594545 4.875-4.875V58.5c-4.73713348-1.49197492-9.66004403-2.31246001-14.625-2.4375z"/>
      <path fill="rgb(0,86,137)" fill-rule="evenodd" d="M29.25 124.3125h-2.4375c-1.34619408 0-2.4375 1.09130592-2.4375 2.4375v4.875c0 1.34619408 1.09130592 2.4375 2.4375 2.4375H48.75v-9.75h-19.5z"/>
      <rect width="4.875" height="4.875" x="65.813" y="46.313" fill="rgb(0,86,137)" rx="0" ry="0"/>
      <rect width="4.875" height="4.875" x="85.313" y="46.313" fill="rgb(0,86,137)" rx="0" ry="0"/>
      <path fill="rgb(0,33,71)" fill-rule="evenodd" d="M129.1875 120.21746826V121.875c2.68908691.0079956 4.86694336 2.18591309 4.875 4.875v4.875c-.00805664 2.68902588-2.18591309 4.86694336-4.875 4.875v12.1875c0 1.3461914-1.0913086 2.4375-2.4375 2.4375h-97.5c-1.3461914 0-2.4375-1.0913086-2.4375-2.4375V136.5c-2.68902588-.00805664-4.86694336-2.18597412-4.875-4.875v-4.875c.00805664-2.68908691 2.18597412-4.8670044 4.875-4.875v-1.65753174c.04638672-13.20202637 8.22772217-25.00872803 20.57250977-29.6887207L65.8125 83.63061523v-1.19439697c-2.49005127-.90112305-4.30480957-3.06951904-4.7531128-5.67938232-.68249511-.56060791-1.38940429-1.12121582-2.02313232-1.73059082C54.59411621 70.59979248 51.85760498 64.74700928 51.30938721 58.5H51.1875c-5.01385498.0177002-9.22375488-3.7701416-9.73382568-8.7579956-.51013184-4.987854 2.8458252-9.54943848 7.75946045-10.54699708l-9.0187378-5.41125488c-.59539795-.35308838-1.01263427-.94268799-1.14746093-1.6217041-.1348877-.67895508.02532959-1.38323975.44055175-1.93707275l6.28875733-8.3605957L36.97686768 8.6531372c-.51287842-.73724366-.56018067-1.70245362-.12188721-2.4862671C37.27062988 5.36755372 38.09912109 4.86859132 39 4.875h53.625c9.41888428.01074219 17.05175781 7.64355469 17.0625 17.0625V34.125c-.00482178.6461792-.25787354 1.2658081-.70690918 1.73059082l-3.24182129 3.24188232c5.16766358.49261475 9.0369873 4.95776368 8.78948975 10.14294434-.2475586 5.1852417-4.5246582 9.26147461-9.71575928 9.25958252h-.14624023c-.62426758 7.16174316-4.13525391 13.76141357-9.72564698 18.28125-.44238281 2.6071167-2.26092529 4.77075195-4.75311279 5.65496826v1.19439697l18.42749023 6.89813233c12.3447876 4.67999267 20.52612305 16.48669433 20.57250977 29.6887207zm-84.16687012-89.2368164l5.6793213-7.58062745c.61901855-.82342529.64837646-1.9486084.07318114-2.80316162L43.55810547 9.75H92.625c6.73095703 0 12.1875 5.45654297 12.1875 12.1875v11.18811035L101.37561035 36.5625h-2.72998047c-2.76977539.0031128-5.30151367-1.56512451-6.53253174-4.04626465l-2.19372558-4.36309814c-.3272705-.66027832-.9373169-1.13574219-1.65753174-1.29187012-.16925049-.02832031-.340271-.0446167-.51184082-.04876709-.54980469.00317383-1.08239746.1921997-1.5112915.53625488l-5.53308106 4.41186524c-3.89160156 3.10412597-8.7208252 4.79693603-13.6987915 4.80187988H54.30749512l-9.28686524-5.58184814zM64.54498291 55.6237793L56.42810059 41.4375h10.57873535c6.08520508-.01043701 11.98754883-2.08099365 16.7456665-5.87438965l3.16870117-2.53497314L87.75 34.71002197c2.05706787 4.13195801 6.27990723 6.73937989 10.89562988 6.72747803h.9262085l-8.11688233 14.1862793C87.07397461 54.38452148 82.55200195 53.71276855 78 53.625c-4.55206299.08776855-9.07403564.75952148-13.45501709 1.9987793zM46.3125 48.75c0 2.69238281 2.18261719 4.875 4.875 4.875v-9.75c-2.69238281 0-4.875 2.18261719-4.875 4.875zm63.375 0c-.00805664 2.68902588-2.18597412 4.86694336-4.875 4.875v-9.75c2.68902588.00805664 4.86694336 2.18597412 4.875 4.875zm-53.625 7.3125c-.00848389 5.01489258 1.7133789 9.8791504 4.875 13.77191162V59.1581421l-4.875-8.53125V56.0625zm39 13.77191162c3.17248535-3.88665771 4.89575195-8.75494385 4.875-13.77191162v-5.43560791l-4.875 8.53125v10.67626953zM87.75 78c1.3461914 0 2.4375-1.0913086 2.4375-2.4375V60.328125C86.21807861 59.20855713 82.12322998 58.59429932 78 58.5c-4.12322998.09429932-8.21807861.70855713-12.1875 1.828125V75.5625C65.8125 76.9086914 66.9038086 78 68.25 78h19.5zm-2.4375 4.875v2.4375c0 4.03857422-3.27392578 7.3125-7.3125 7.3125s-7.3125-3.27392578-7.3125-7.3125V82.875h14.625zm-34.125 63.375h53.625v-31.6875h4.875v7.3125h14.625v-1.6574707c-.03619385-11.16729737-6.95916748-21.1541748-17.40374756-25.10626221l-17.2331543-6.48376465C88.2166748 93.8703003 83.4420166 97.4977417 78 97.4977417s-10.2166748-3.6274414-11.67559814-8.87023926l-17.2331543 6.48376465c-10.44458008 3.9520874-17.36755371 13.93896484-17.40374756 25.1062622V121.875h14.625v-7.3125h4.875V146.25zm-4.875-14.625h-19.5v-4.875h19.5v4.875zm63.375 0h19.5v-4.875h-19.5v4.875zm-78 4.875v9.75h14.625v-9.75h-14.625zm92.625 9.75h-14.625v-9.75h14.625v9.75z"/>
    </g>
  </g>
</svg>
