<?xml version="1.0" encoding="utf-8"?>
<!-- Generator: Adobe Illustrator 24.1.1, SVG Export Plug-In . SVG Version: 6.00 Build 0)  -->
<svg version="1.1" id="Layer_1" xmlns="http://www.w3.org/2000/svg" xmlns:xlink="http://www.w3.org/1999/xlink" x="0px" y="0px"
	 viewBox="0 0 677.5 503.6" style="enable-background:new 0 0 677.5 503.6;" xml:space="preserve">
<style type="text/css">
	.st0{fill:#F2F2F2;}
	.st1{fill:#E6E6E6;}
	.st2{fill:#FFB6B6;}
	.st3{fill:#2F2E41;}
	.st4{fill:#83C702;}
	.st5{fill:#CCCCCC;}
</style>
<path class="st0" d="M504.9,293c2.1,0.1,3.2-2.4,1.6-3.9l-0.2-0.6c0,0,0-0.1,0.1-0.1c2.1-5,9.2-4.9,11.2,0c1.8,4.4,4.2,8.9,4.8,13.5
	c0.3,2.1,0.1,4.2-0.3,6.2c4.3-9.4,6.6-19.7,6.6-30c0-2.6-0.1-5.2-0.4-7.8c-0.2-2.1-0.6-4.2-1-6.3c-2.3-11.3-7.3-22-14.5-31
	c-3.5-1.9-6.3-4.9-8.1-8.4c-0.6-1.3-1.1-2.7-1.3-4.1c0.4,0.1,1.5-5.9,1.2-6.3c0.5-0.8,1.5-1.2,2.1-2.1c3-4,7.1-3.3,9.2,2.2
	c4.6,2.3,4.6,6.1,1.8,9.8c-1.8,2.3-2,5.5-3.6,8c0.2,0.2,0.3,0.4,0.5,0.6c3,3.8,5.5,7.9,7.7,12.2c-0.6-4.8,0.3-10.5,1.8-14.2
	c1.7-4.2,5-7.8,7.9-11.4c3.5-4.4,10.6-2.5,11.2,3.1c0,0.1,0,0.1,0,0.2c-0.4,0.2-0.8,0.5-1.3,0.8c-2.3,1.5-1.5,5.2,1.2,5.6l0.1,0
	c-0.2,1.5-0.4,3.1-0.8,4.6c3.7,14.3-4.3,19.5-15.7,19.8c-0.3,0.1-0.5,0.3-0.7,0.4c1.2,3.3,2.1,6.6,2.8,10c0.6,3,1,6,1.3,9
	c0.3,3.8,0.3,7.7-0.1,11.5l0-0.1c0.8-4.2,3.1-8.1,6.4-10.9c4.9-4.1,11.9-5.6,17.3-8.8c2.6-1.6,5.9,0.5,5.4,3.4l0,0.1
	c-0.8,0.3-1.6,0.7-2.3,1.1c-0.4,0.2-0.8,0.5-1.3,0.8c-2.3,1.5-1.5,5.2,1.2,5.6l0.1,0c0,0,0.1,0,0.1,0c-1.4,3.2-3.3,6.2-5.6,8.8
	c-2.3,12.5-12.3,13.7-22.9,10h0c-1.2,5.1-2.9,10-5,14.7h-18c-0.1-0.2-0.1-0.4-0.2-0.6c1.7,0.1,3.3,0,5-0.3c-1.3-1.6-2.7-3.3-4-4.9
	c0,0-0.1-0.1-0.1-0.1c-0.7-0.8-1.4-1.7-2-2.5l0,0C504,298.1,504.3,295.5,504.9,293L504.9,293L504.9,293L504.9,293z"/>
<path class="st0" d="M77.5,266.6c5.5,0.3,8.5-6.4,4.3-10.4l-0.4-1.6c0.1-0.1,0.1-0.3,0.2-0.4c5.5-13.2,24.3-13.1,29.7,0.1
	c4.9,11.7,11.1,23.4,12.6,35.8c0.7,5.5,0.4,11-0.8,16.4c11.4-24.9,17.4-52.1,17.4-79.4c0-6.9-0.4-13.7-1.1-20.6
	c-0.6-5.6-1.5-11.2-2.6-16.7c-6.1-29.8-19.3-58.2-38.3-82c-9.2-5-16.8-12.8-21.4-22.2c-1.7-3.4-3-7-3.6-10.7
	c1,0.1,3.9-15.7,3.1-16.7c1.5-2.2,4.1-3.3,5.6-5.4c7.9-10.7,18.8-8.8,24.4,5.7c12.1,6.1,12.2,16.3,4.8,26
	c-4.7,6.2-5.4,14.6-9.5,21.2c0.4,0.5,0.9,1.1,1.3,1.6c7.8,10,14.6,20.8,20.3,32.2c-1.6-12.6,0.8-27.8,4.8-37.6
	c4.6-11.2,13.3-20.5,20.9-30.2c9.2-11.6,28-6.5,29.6,8.2c0,0.1,0,0.3,0,0.4c-1.1,0.6-2.2,1.3-3.3,2c-6.2,4.1-4,13.7,3.3,14.8l0.2,0
	c-0.4,4.1-1.1,8.1-2.1,12.1c9.8,37.9-11.3,51.6-41.5,52.3c-0.7,0.3-1.3,0.7-2,1c3.1,8.6,5.5,17.4,7.3,26.4
	c1.6,7.9,2.8,15.9,3.4,23.9c0.8,10.1,0.7,20.3-0.1,30.4l0.1-0.4c2.2-11.1,8.2-21.5,17-28.7c13.1-10.7,31.6-14.7,45.7-23.3
	c6.8-4.2,15.5,1.2,14.3,9.1l-0.1,0.4c-2.1,0.9-4.2,1.8-6.1,3c-1.1,0.6-2.2,1.3-3.3,2c-6.2,4.1-4,13.7,3.3,14.8l0.2,0
	c0.1,0,0.2,0,0.3,0.1c-3.6,8.6-8.6,16.5-14.9,23.3c-6.1,33-32.4,36.2-60.5,26.6h0c-3.1,13.4-7.6,26.5-13.3,38.9H78.7
	c-0.2-0.5-0.3-1.1-0.5-1.6c4.4,0.3,8.8,0,13.2-0.8c-3.5-4.3-7.1-8.7-10.6-13c-0.1-0.1-0.2-0.2-0.2-0.3c-1.8-2.2-3.6-4.4-5.4-6.6l0,0
	C75.1,279.9,75.9,273.2,77.5,266.6L77.5,266.6L77.5,266.6L77.5,266.6z"/>
<path class="st1" d="M654.8,26.8H250v2h269.8c19.2,0,37.5,3.5,54.5,9.8h0c2.3,0.9,4.6,1.8,6.9,2.8c5.2,2.2,10.3,4.8,15.2,7.6
	c3.1,1.7,6.1,3.6,9,5.5c6.2,4.1,12.2,8.7,17.7,13.6l0,0c0.3,0.2,0.5,0.4,0.7,0.6c31.7,28.5,51.6,69.8,51.6,115.8v112.6
	c0,0.2,0,0.5,0,0.7c-0.3,8.3-5.4,15.2-12.2,13.4c-11.6-3-23.4-5.1-35.3-5.1H71.2C48,306.2,24.5,308.4,3,317c-0.7,0.3-1.4,0.1-2-0.1
	c-0.3-0.1-0.6-0.2-0.9-0.3v2.1c2.3,0.8,4.7,1.2,7.2,1.2h647.6c12.3,0,22.3-9.8,22.7-21.9c0-0.3,0-0.5,0-0.8V49.5
	C677.5,37,667.3,26.8,654.8,26.8z"/>
<g>
	<polygon class="st2" points="261.1,480.1 246,482.4 229.9,424.9 252.3,421.5 	"/>
	<path class="st3" d="M264.1,495.8l-46.7,7l-0.1-0.6c-1.5-10,5.4-19.4,15.4-20.9l0,0l7.6-7.8l16.9,4.1l4.1-0.6L264.1,495.8
		L264.1,495.8z"/>
</g>
<g>
	<polygon class="st2" points="387.4,467.8 373.6,474.6 340.8,424.8 361.1,414.7 	"/>
	<path class="st3" d="M395,482l-42.3,20.9l-0.3-0.5c-4.5-9.1-0.8-20.1,8.3-24.6l0,0l4.8-9.7l17.3-1.3l3.7-1.8L395,482L395,482z"/>
</g>
<path class="st2" d="M419.8,310.3l0.3-94l22.4-5.9l-6.5,99.6c1.8,1.5,3.3,3.5,4.1,5.9c2.2,6.6-1.4,13.7-8,15.9
	c-6.6,2.2-13.7-1.4-15.9-8C414.6,318.8,416.2,313.6,419.8,310.3L419.8,310.3z"/>
<path class="st2" d="M276.9,285.5l4.1-94l22.6-5L293,285.8c1.8,1.5,3.2,3.6,3.9,6c1.9,6.7-2,13.6-8.6,15.5c-6.7,1.9-13.6-2-15.5-8.6
	C271.3,293.8,273.1,288.6,276.9,285.5L276.9,285.5z"/>
<path class="st3" d="M339.4,319.2l-58.3,19.1l-34.2,11.2c14.3,25.1,13.1,102.4,12,108.8H229c-0.3-5.8-21.4-81.2-27.7-115.4
	c-8.1-44.5,30.1-55.7,30.1-55.7l55.2-22l34.6-8.7l27.3-6.9c1.2,2.3,2.3,4.6,3.2,6.9c0,0,0,0,0,0
	C368.3,296.3,339.4,319.2,339.4,319.2L339.4,319.2z"/>
<path class="st3" d="M415.5,283.6c-0.8,12.9-6.2,21.6-6.2,21.6l-76.6,60c15.4,13.1,52.5,77.6,55.8,86.2l-33.4,5
	c-3.7-6.8-61.7-72-67.4-81.8c-7.4-12.7-8.5-25.2-6.5-36.2c4.1-22.9,21-39.6,21-39.6l42-38.6l7.6-3.5l0.1,0l42.4-19.8
	c7.3,6.6,12.3,13.4,15.6,19.9c3.7,7.2,5.3,14.1,5.7,20.3C415.6,279.3,415.6,281.5,415.5,283.6L415.5,283.6z"/>
<path class="st4" d="M377.9,83.8l-42-1.3l-12.5,15c-12,1.4-22.6,6.1-31.3,15c0,0,6.9,18.4,5,57.6c-1,20.4,3.7,58,3.1,72.6
	c-0.5,13,1.5,18.8,1.9,18.8c1.7-0.2,9.4-4.4,25,0.6s84.2-5.7,84.2-5.7l-4.6-30l5.8-18.8l2.4-100.1c-13.1-5.6-20-7.5-32.6-7.5
	L377.9,83.8L377.9,83.8z"/>
<path class="st4" d="M401.9,115.4l12.3-7.7c0,0,22.5-3.8,20.7,39.4c0,0,12.4,31.1,11.6,58.3c0,1.7-1.7,4.2-0.3,5
	c3,1.7,1.6,3.4-0.7,5l-28.3,6.3c-2.5-2.4-3.8-4.6-1.8-6.4c-2.3-0.8-2.9-2-1-3.6c-1-0.2-1.5-0.8-0.7-2.5l-13.9-29.5L401.9,115.4
	L401.9,115.4z"/>
<path class="st4" d="M306.3,118.2l-13.3-5.9c0,0-22.8-0.4-14.7,42c0,0-6.9,29.2-3.6,55c0.1,0.6,0.6,1.3,0.2,1.7
	c-1.2,1.5-1.4,2.9,0.8,4.4c0.7,0.5,1,1.8,0.6,2.6c-1.4,2.5-0.4,4.1,1.5,5.4l33.4,11.6l8.8-69.8L306.3,118.2L306.3,118.2z"/>
<circle class="st2" cx="352.7" cy="43.9" r="35.5"/>
<path class="st3" d="M386,67.6c-0.4,0.8-1.7,1.9-3.4,3.1c-1.9,1.4-4.4,2.9-6.9,4.3c0,0-8.9-1-5.4-5.7c0.4-0.5,0.8-1.1,1.1-1.7
	c1.2-2.3,1.8-4.9,0.3-6.8c-1.2-1.4-3.3-1.8-4.9-0.9c-1.6,0.9-1,0.9-1.6,0.7c-1.5-1.7-3.9-0.9-3.9-0.9s1.9-4.2,3.3-6
	c1.5-1.8,3-3.8,3.1-6.1c0.2-2.2-1-4.3-2.1-6.2c-1.2-2.1-2.3-4.2-3.5-6.3c-0.4-0.7-0.8-1.4-1.2-2.1c-4.2-6.7-17.9,0.1-25.8-0.2
	c-7.9-0.3-10.6-9.9-15.3-3.6c-1.1-5-2-8.9-3.1-13.2c-1-3.9,3.4-7.2,6.8-4.9c0,0,0,0,0.1,0.1c0.5-0.6,0.8-1.2,1-2
	c0.2-0.5,0.4-0.9,0.7-1.3c1.1,0.8,2.3,1.6,3.4,2.4c-0.2-1.4-0.7-2.7-1.3-3.9c1-0.3,2.1-0.3,3.1,0.1l1.9,0.8c0.6-0.5,1-1.1,1.3-1.8
	c0.7-1.9,2.7-3.1,4.7-2.9c3.3,0.3-1.1-0.4,2.3-1.2c5.1-1.2,10.8-2.3,15.3,0.3c6.8,3.9,11.9,6.8,23.9,7.8c6,4,8.6,13.6,10.4,18.5
	c1.5,3.8,2.6,11.4,1,15.2C387.5,52.7,390.8,58.4,386,67.6L386,67.6z"/>
<path class="st0" d="M469.5,486.3c2.1,0.1,3.2-2.4,1.6-3.9l-0.2-0.6c0,0,0-0.1,0.1-0.1c2.1-5,9.2-4.9,11.2,0
	c1.8,4.4,4.2,8.9,4.8,13.5c0.3,2.1,0.1,4.2-0.3,6.2c4.3-9.4,6.6-19.7,6.6-30c0-2.6-0.1-5.2-0.4-7.8c-0.2-2.1-0.6-4.2-1-6.3
	c-2.3-11.3-7.3-22-14.5-31c-3.5-1.9-6.3-4.9-8.1-8.4c-0.6-1.3-1.1-2.7-1.3-4.1c0.4,0.1,1.5-5.9,1.2-6.3c0.5-0.8,1.5-1.2,2.1-2.1
	c3-4,7.1-3.3,9.2,2.2c4.6,2.3,4.6,6.1,1.8,9.8c-1.8,2.3-2,5.5-3.6,8c0.2,0.2,0.3,0.4,0.5,0.6c3,3.8,5.5,7.9,7.7,12.2
	c-0.6-4.8,0.3-10.5,1.8-14.2c1.7-4.2,5-7.8,7.9-11.4c3.5-4.4,10.6-2.5,11.2,3.1c0,0.1,0,0.1,0,0.2c-0.4,0.2-0.8,0.5-1.3,0.8
	c-2.3,1.5-1.5,5.2,1.2,5.6l0.1,0c-0.2,1.5-0.4,3.1-0.8,4.6c3.7,14.3-4.3,19.5-15.7,19.8c-0.3,0.1-0.5,0.3-0.7,0.4
	c1.2,3.3,2.1,6.6,2.8,10c0.6,3,1,6,1.3,9c0.3,3.8,0.3,7.7-0.1,11.5l0-0.1c0.8-4.2,3.1-8.1,6.4-10.9c4.9-4.1,11.9-5.6,17.3-8.8
	c2.6-1.6,5.9,0.5,5.4,3.4l0,0.1c-0.8,0.3-1.6,0.7-2.3,1.1c-0.4,0.2-0.8,0.5-1.3,0.8c-2.3,1.5-1.5,5.2,1.2,5.6l0.1,0c0,0,0.1,0,0.1,0
	c-1.4,3.2-3.3,6.2-5.6,8.8c-2.3,12.5-12.3,13.7-22.9,10h0c-1.2,5.1-2.9,10-5,14.7h-18c-0.1-0.2-0.1-0.4-0.2-0.6c1.7,0.1,3.3,0,5-0.3
	c-1.3-1.6-2.7-3.3-4-4.9c0,0-0.1-0.1-0.1-0.1c-0.7-0.8-1.4-1.7-2-2.5l0,0C468.6,491.3,468.9,488.7,469.5,486.3L469.5,486.3
	L469.5,486.3z"/>
<path class="st5" d="M138,502.4c0,0.7,0.5,1.2,1.2,1.2h383.3c0.7,0,1.2-0.5,1.2-1.2c0-0.7-0.5-1.2-1.2-1.2H139.1
	C138.5,501.2,138,501.7,138,502.4z"/>
</svg>
