<svg id="Layer_1" data-name="Layer 1" xmlns="http://www.w3.org/2000/svg" xmlns:xlink="http://www.w3.org/1999/xlink" viewBox="0 0 500 500"><defs><style>.cls-1{fill:#fff;}.cls-2{fill:url(#radial-gradient);}</style><radialGradient id="radial-gradient" cx="64.95" cy="154.57" r="292.84" gradientUnits="userSpaceOnUse"><stop offset="0" stop-color="#ff0056"/><stop offset="1" stop-color="#cf0000"/></radialGradient></defs><rect class="cls-1" x="0.02" width="500" height="500"/><path class="cls-2" d="M116.12,248.34h-5.93v-7.72h5.93V230.28h9v10.34h8.28v7.72h-8.28v13.51a9.93,9.93,0,0,0,.24,2.24,3.79,3.79,0,0,0,.94,1.74,3.39,3.39,0,0,0,2.75,1.13,5.85,5.85,0,0,0,1.87-.24,6.15,6.15,0,0,0,1.31-.65l2.55,7.93a15.62,15.62,0,0,1-3.42,1.14,20,20,0,0,1-4,.38,12.55,12.55,0,0,1-4.59-.81,9.79,9.79,0,0,1-3.41-2.22q-3.24-3.17-3.24-9Z"/><path class="cls-2" d="M140.39,225h9V238.9l-.56,6.13h.56a11.14,11.14,0,0,1,4.17-4,12.13,12.13,0,0,1,6.1-1.55q6.56,0,9.69,3.86t3.14,10.55v20.48h-9V255a7.73,7.73,0,0,0-1.65-5.34,5.92,5.92,0,0,0-4.62-1.83,6.76,6.76,0,0,0-3.31.8,7.26,7.26,0,0,0-2.45,2.17,10.19,10.19,0,0,0-1.52,3.2,14.47,14.47,0,0,0-.51,3.9v16.48h-9Z"/><path class="cls-2" d="M185,236.07a5.71,5.71,0,0,1-2.24-.45,5.57,5.57,0,0,1-1.86-1.24,5.9,5.9,0,0,1-1.25-1.83,6.1,6.1,0,0,1,0-4.55,5.9,5.9,0,0,1,1.25-1.83,5.87,5.87,0,0,1,8.24,0,5.76,5.76,0,0,1,0,8.21A5.69,5.69,0,0,1,185,236.07Zm-4.48,38.34V240.62h9v33.79Z"/><path class="cls-2" d="M206.32,245h.55a11.41,11.41,0,0,1,4.27-4,12.51,12.51,0,0,1,6.14-1.48,14.11,14.11,0,0,1,5.59,1,10.29,10.29,0,0,1,4,2.93,13,13,0,0,1,2.35,4.55,20.9,20.9,0,0,1,.79,5.9v20.48h-9V255c0-2.43-.54-4.24-1.62-5.41a6.1,6.1,0,0,0-4.72-1.76,6.55,6.55,0,0,0-3.27.8,7.57,7.57,0,0,0-2.42,2.13,9.6,9.6,0,0,0-1.51,3.17,14.08,14.08,0,0,0-.52,3.9v16.55h-9V240.62h8.49Z"/><path class="cls-2" d="M237.42,225h9v26.89h.41l11.31-11.31h11.17v.55l-12.55,12.21,13.59,20.48v.55H259.69l-9.24-14.82-4,3.93v10.89h-9Z"/><path class="cls-2" d="M294.1,270.83h-.55a15.35,15.35,0,0,1-3.83,3.31,10.91,10.91,0,0,1-5.76,1.38,13.9,13.9,0,0,1-4.93-.87,12.57,12.57,0,0,1-4-2.38,10.6,10.6,0,0,1-2.69-3.65,11.34,11.34,0,0,1-1-4.69,10.53,10.53,0,0,1,1-4.72,10.65,10.65,0,0,1,2.89-3.62,12.83,12.83,0,0,1,4.38-2.31,18.16,18.16,0,0,1,5.49-.8,23.39,23.39,0,0,1,5.44.52,25.28,25.28,0,0,1,3.52,1.07v-1a5.49,5.49,0,0,0-2.14-4.44,8,8,0,0,0-5.31-1.76,9.93,9.93,0,0,0-7.93,3.93l-6.55-4.48q5.38-6.76,14.69-6.76,7.86,0,12,3.69T303,254.14v20.27h-8.9Zm0-10.14a18.65,18.65,0,0,0-3.27-1.21,14.35,14.35,0,0,0-3.69-.45,7.79,7.79,0,0,0-5,1.42,4.28,4.28,0,0,0-1.76,3.48,3.9,3.9,0,0,0,1.69,3.31,6.36,6.36,0,0,0,3.89,1.24,8.35,8.35,0,0,0,3.31-.65,8.17,8.17,0,0,0,2.59-1.73,7.73,7.73,0,0,0,2.24-5.41Z"/><path class="cls-2" d="M335,270.34h-.55a10.13,10.13,0,0,1-3.86,3.66,12.78,12.78,0,0,1-6.48,1.52,14.56,14.56,0,0,1-6.17-1.35,16.52,16.52,0,0,1-5.17-3.72,17.84,17.84,0,0,1-3.56-5.69,20.66,20.66,0,0,1,0-14.48,17.62,17.62,0,0,1,3.56-5.69,16.39,16.39,0,0,1,5.17-3.73,14.71,14.71,0,0,1,6.17-1.34,12.68,12.68,0,0,1,6.48,1.52,10.19,10.19,0,0,1,3.86,3.65H335l-.55-4.83V225h9v49.37H335Zm-9-3.17a9.11,9.11,0,0,0,3.41-.65,8.61,8.61,0,0,0,2.87-1.9,9.63,9.63,0,0,0,2-3,11.39,11.39,0,0,0,0-8.13,9.63,9.63,0,0,0-2-3,8.58,8.58,0,0,0-2.87-1.89,8.93,8.93,0,0,0-3.41-.66,8.59,8.59,0,0,0-3.41.69,9.18,9.18,0,0,0-2.87,1.93,9.44,9.44,0,0,0-2,3,10.91,10.91,0,0,0,0,8,9.5,9.5,0,0,0,2,3,9,9,0,0,0,2.87,1.93A8.59,8.59,0,0,0,326,267.17Z"/><path class="cls-2" d="M385.43,242.44a20.19,20.19,0,0,0-14.84-7.68,20.39,20.39,0,0,0-18.33,31.32l.36.55,3.36-3.36a7,7,0,0,0,2-6.16,11.71,11.71,0,0,1,3.25-10.25,11.68,11.68,0,0,1,16.84.33,11.68,11.68,0,0,1-10.62,19.43,7,7,0,0,0-6.11,2L358,272l.55.35a20.25,20.25,0,0,0,10.93,3.21,20.4,20.4,0,0,0,16-33.08Z"/><circle class="cls-2" cx="352.38" cy="272.14" r="3.37"/></svg>